<svg xmlns="http://www.w3.org/2000/svg" version="1.1" xmlns:xlink="http://www.w3.org/1999/xlink" xmlns:svgjs="http://svgjs.dev/svgjs" width="1500" height="1500" viewBox="0 0 1500 1500"><rect width="1500" height="1500" fill="#000000"></rect><g transform="matrix(0.6666666666666666,0,0,0.6666666666666666,249.39393939393938,438.5856950067477)"><svg viewBox="0 0 396 247" data-background-color="#000000" preserveAspectRatio="xMidYMid meet" height="935" width="1500" xmlns="http://www.w3.org/2000/svg" xmlns:xlink="http://www.w3.org/1999/xlink"><g id="tight-bounds" transform="matrix(1,0,0,1,0.2400000000000091,-0.09999999999999432)"><svg viewBox="0 0 395.52 247.2" height="247.2" width="395.52"><g><svg></svg></g><g><svg viewBox="0 0 395.52 247.2" height="247.2" width="395.52"><g transform="matrix(1,0,0,1,75.54432,60.97252268274303)"><svg viewBox="0 0 244.43135999999998 125.25495463451392" height="125.25495463451392" width="244.43135999999998"><g><svg viewBox="0 0 244.43135999999998 125.25495463451392" height="125.25495463451392" width="244.43135999999998"><g><svg viewBox="0 0 244.43135999999998 125.25495463451392" height="125.25495463451392" width="244.43135999999998"><g><svg viewBox="0 0 244.43135999999998 125.25495463451392" height="125.25495463451392" width="244.43135999999998"><g id="textblocktransform"><svg viewBox="0 0 244.43135999999998 125.25495463451392" height="125.25495463451392" width="244.43135999999998" id="textblock"><g><svg viewBox="0 0 244.43135999999998 125.25495463451392" height="125.25495463451392" width="244.43135999999998"><g transform="matrix(1,0,0,1,0,0)"><svg width="244.43135999999998" viewBox="5 -33.25 66.34 34" height="125.25495463451392" data-palette-color="#f805f8"><path d="M8.5-26.9L8.5 0 5 0 5-32.5 10.25-32.5 15.95-11.05 21.7-32.5 26.95-32.5 26.95 0 23.45 0 23.45-26.9 17.6-5 14.35-5 8.5-26.9ZM49.6 0L36.95 0 36.95-32.5 40.45-32.5 40.45-3 49.6-3 49.6 0ZM67.84-13.5L62.25-13.5 62.25-16.5 71.34-16.5 71.34 0 69.84 0 68.55-3.2Q67.5-1.4 65.8-0.33 64.09 0.75 62.1 0.75L62.1 0.75Q54.85 0.75 54.85-6.25L54.85-6.25 54.85-26.25Q54.85-29.6 56.9-31.43 58.95-33.25 63.05-33.25 67.15-33.25 69.25-31.43 71.34-29.6 71.34-26.25L71.34-26.25 71.34-23.5 67.84-23.5 67.84-26.25Q67.84-30.25 63.1-30.25 58.35-30.25 58.35-26.25L58.35-26.25 58.35-6.25Q58.35-4.35 59.15-3.3 59.95-2.25 62.07-2.25 64.2-2.25 66.02-3.95 67.84-5.65 67.84-7.25L67.84-7.25 67.84-13.5Z" opacity="1" transform="matrix(1,0,0,1,0,0)" fill="#f805f8" class="wordmark-text-0" data-fill-palette-color="primary" id="text-0"></path></svg></g></svg></g></svg></g></svg></g></svg></g></svg></g></svg></g><g><path d="M0 123.6c0-68.262 55.338-123.6 123.6-123.6 38.958 0 73.706 18.024 96.361 46.188l-7.364 0c-21.624-24.839-53.477-40.54-88.997-40.54-65.143 0-117.952 52.809-117.952 117.952 0 65.143 52.809 117.952 117.952 117.952 35.52 0 67.373-15.7 88.997-40.54h7.364c-22.655 28.164-57.403 46.188-96.361 46.188-68.262 0-123.6-55.338-123.6-123.6z" fill="#f805f8" stroke="transparent" data-fill-palette-color="tertiary"></path></g></svg></g><defs></defs></svg><rect width="395.52" height="247.2" fill="none" stroke="none" visibility="hidden"></rect></g></svg></g></svg>